<?xml version="1.0" encoding="utf-8"?>
<!-- Generator: Adobe Illustrator 27.5.0, SVG Export Plug-In . SVG Version: 6.00 Build 0)  -->
<svg version="1.1" id="Layer_1" xmlns="http://www.w3.org/2000/svg" xmlns:xlink="http://www.w3.org/1999/xlink" x="0px" y="0px"
	 viewBox="0 0 512 512" style="enable-background:new 0 0 512 512;" xml:space="preserve">
<g>
	<path d="M297.45,206.3c0-20.13-14.21-31.25-39.17-31.25h-45.92v64.87h38.72C280.96,239.83,297.45,227.8,297.45,206.3z
		 M464.63,194.64c-8.65-28.15-9.93-62.68-8.93-89.37c1-27.79-20.68-53.3-49.83-53.3H106.32c-29.24,0-50.84,25.6-49.83,53.3
		c0.91,26.69-0.27,61.22-8.93,89.37c-8.75,28.24-23.41,46.1-47.56,48.38v25.96c24.05,2.28,38.81,20.13,47.56,48.38
		c8.65,28.15,9.93,62.68,8.93,89.37c-1,27.79,20.68,53.3,49.83,53.3h299.46c29.24,0,50.84-25.6,49.83-53.3
		c-0.91-26.69,0.27-61.22,8.93-89.37c8.75-28.24,23.41-46.1,47.46-48.38v-25.96C488.04,240.74,473.28,222.88,464.63,194.64z
		 M267.11,364.55h-89.19v-217.1h88.73c39.45,0,65.32,21.32,65.32,54.12c0,23.05-17.4,43.64-39.63,47.19v1.18
		c30.25,3.28,50.56,24.23,50.56,53.11C342.91,341.41,314.4,364.55,267.11,364.55z M258,265.52h-45.64v71.42h47.65
		c31.16,0,47.65-12.48,47.65-35.99C307.66,277.55,290.71,265.52,258,265.52z"/>
</g>
</svg>
