<?xml version="1.0" encoding="utf-8"?>
<!-- Generator: Adobe Illustrator 27.2.0, SVG Export Plug-In . SVG Version: 6.00 Build 0)  -->
<svg version="1.1" id="Layer_1" xmlns="http://www.w3.org/2000/svg" xmlns:xlink="http://www.w3.org/1999/xlink" x="0px" y="0px"
	 viewBox="0 0 512 512" style="enable-background:new 0 0 512 512;" xml:space="preserve">
<style type="text/css">
	.st0{fill:#212121;}
</style>
<g>
	<path class="st0" d="M294.4,153.6V0H140.8c-28.28,0-51.2,22.92-51.2,51.2v256.45l6.4-0.45c17.18,0,32.11,9.67,39.62,23.87
		c13.78-14.69,33.37-23.87,55.1-23.87h2.56c41.71,0,75.52,33.81,75.52,75.52V384c0,11.52-4.35,22.03-11.5,29.97
		c7.35,11.22,11.5,24.55,11.5,38.56v9.55c0,19.14-7.12,36.61-18.85,49.92H448c28.28,0,51.2-22.92,51.2-51.2v-256H345.6
		C317.32,204.8,294.4,181.88,294.4,153.6z M332.8,153.6V12.8l153.6,153.6H345.6C338.53,166.4,332.8,160.67,332.8,153.6z M96,332.8
		c10.6,0,19.2,8.6,19.2,19.2v108.8c0,28.28-22.92,51.2-51.2,51.2c-28.28,0-51.2-22.92-51.2-51.2v-6.4c0-10.6,8.6-19.2,19.2-19.2
		s19.2,8.6,19.2,19.2v6.4c0,7.07,5.73,12.8,12.8,12.8c7.07,0,12.8-5.73,12.8-12.8V352C76.8,341.4,85.4,332.8,96,332.8z
		 M190.72,332.8c-27.57,0-49.92,22.35-49.92,49.92v5.99c0,15.74,8.26,30.32,21.75,38.42l39.14,23.49l3.11,5.49v5.99
		c0,6.36-5.16,11.52-11.52,11.52h-2.56c-6.36,0-11.52-5.16-11.52-11.52v-1.28c0-10.6-8.6-19.2-19.2-19.2s-19.2,8.6-19.2,19.2v1.28
		c0,27.57,22.35,49.92,49.92,49.92h2.56c27.57,0,49.92-22.35,49.92-49.92v-5.99c0-15.74-8.26-30.32-21.75-38.42l-39.14-23.49
		l-3.11-5.49v-5.99c0-6.36,5.16-11.52,11.52-11.52h2.56c6.36,0,11.52,5.16,11.52,11.52V384c0,10.6,8.6,19.2,19.2,19.2
		s19.2-8.6,19.2-19.2v-1.28c0-27.57-22.35-49.92-49.92-49.92H190.72z"/>
</g>
</svg>
