<?xml version="1.0" encoding="utf-8"?>
<!-- Generator: Adobe Illustrator 26.3.1, SVG Export Plug-In . SVG Version: 6.00 Build 0)  -->
<svg version="1.1" id="Layer_1" xmlns="http://www.w3.org/2000/svg" xmlns:xlink="http://www.w3.org/1999/xlink" x="0px" y="0px"
	 viewBox="0 0 512 512" style="enable-background:new 0 0 512 512;" xml:space="preserve">
<style type="text/css">
	.st0{fill-rule:evenodd;clip-rule:evenodd;}
</style>
<g>
	<path class="st0" d="M409.6,307.2c-28.29,0-51.2,25.6-51.2,53.89v25.6c0,28.26,22.91,48.51,51.2,48.51H448
		c7.07,0,12.8,5.73,12.8,12.8s-5.73,12.8-12.8,12.8h-89.6V512h102.4h0.54c27.98,0,50.66-19.99,50.66-48v-26.65
		c0-27.98-22.68-53.35-50.66-53.35h-0.54h-38.4c-7.07,0-12.8-5.73-12.8-12.8c0-7.07,5.73-12.8,12.8-12.8H512v-51.2H409.6z
		 M230.4,307.2c-28.29,0-51.2,25.6-51.2,53.89v25.6c0,28.26,22.91,48.51,51.2,48.51h38.4c7.07,0,12.8,5.73,12.8,12.8
		s-5.73,12.8-12.8,12.8h-89.6V512h102.4h0.54c27.98,0,50.66-19.99,50.66-48v-26.65c0-27.98-22.68-53.35-50.66-53.35h-0.54h-38.4
		c-7.07,0-12.8-5.73-12.8-12.8c0-7.07,5.73-12.8,12.8-12.8h89.6v-51.2H230.4z M0,409.6C0,466.15,45.85,512,102.4,512h51.2v-51.2
		h-51.2c-28.29,0-51.2-22.91-51.2-51.2s22.91-51.2,51.2-51.2h51.2v-51.2h-51.2C45.85,307.2,0,353.05,0,409.6z M512,164.81V256h-51.2
		v-51.2H307.2V51.2h-256V256H0V0h357.86L512,164.81z"/>
</g>
</svg>
