<?xml version="1.0" encoding="utf-8"?>
<!-- Generator: Adobe Illustrator 28.0.0, SVG Export Plug-In . SVG Version: 6.00 Build 0)  -->
<svg version="1.1" id="Layer_1" xmlns="http://www.w3.org/2000/svg" xmlns:xlink="http://www.w3.org/1999/xlink" x="0px" y="0px"
	 viewBox="0 0 512 512" style="enable-background:new 0 0 512 512;" xml:space="preserve">
<style type="text/css">
	.st0{clip-path:url(#SVGID_00000046329006443913079940000013840987724073295233_);}
	.st1{clip-path:url(#SVGID_00000046329006443913079940000013840987724073295233_);fill-rule:evenodd;clip-rule:evenodd;}
</style>
<g>
	<g>
		<defs>
			<rect id="SVGID_1_" width="512" height="512"/>
		</defs>
		<clipPath id="SVGID_00000143581601993467228390000006250928680555579811_">
			<use xlink:href="#SVGID_1_"  style="overflow:visible;"/>
		</clipPath>
		<polygon style="clip-path:url(#SVGID_00000143581601993467228390000006250928680555579811_);" points="108.39,0 131.46,0 
			131.46,22.8 152.57,22.8 152.57,0 175.65,0 175.65,69.04 152.57,69.04 152.57,45.92 131.46,45.92 131.46,69.04 108.39,69.04 		"/>
		<polygon style="clip-path:url(#SVGID_00000143581601993467228390000006250928680555579811_);" points="206,22.9 185.68,22.9 
			185.68,0 249.4,0 249.4,22.9 229.08,22.9 229.08,69.04 206,69.04 		"/>
		<polygon style="clip-path:url(#SVGID_00000143581601993467228390000006250928680555579811_);" points="259.52,0 283.58,0 
			298.38,24.26 313.17,0 337.24,0 337.24,69.04 314.26,69.04 314.26,34.82 298.38,59.37 297.98,59.37 282.09,34.82 282.09,69.04 
			259.52,69.04 		"/>
		<polygon style="clip-path:url(#SVGID_00000143581601993467228390000006250928680555579811_);" points="348.73,0 371.81,0 
			371.81,46.22 404.26,46.22 404.26,69.04 348.73,69.04 		"/>
		
			<path style="clip-path:url(#SVGID_00000143581601993467228390000006250928680555579811_);fill-rule:evenodd;clip-rule:evenodd;" d="
			M107.65,470.88L64,100.62h384l-43.68,370.2L255.78,512L107.65,470.88z M195.91,268.22l-4.15-46.5h173.77l4.07-45.41H142.14
			l12.25,137.32h157.38l-5.27,58.89l-50.65,13.67l-0.04,0.01l-50.57-13.66L202,336.33h-45.59l6.36,71.3l93.02,25.82l93.14-25.82
			l11.35-127.22l1.11-12.19H195.91z"/>
	</g>
</g>
</svg>
